<svg id="e4nmaRhAJDi1" xmlns="http://www.w3.org/2000/svg" xmlns:xlink="http://www.w3.org/1999/xlink" viewBox="0 0 600 600" shape-rendering="geometricPrecision" text-rendering="geometricPrecision" project-id="0197c63157ce4fac8bc52b313c52f789" export-id="76743653ebac40a6b64c52724cea2e9a" cached="false"><g transform="matrix(1.2 0 0 1.136946-1.199914-1.137003)"><path d="M342,501c-113.999969,0-227.499947,0-340.999939,0-.00002-166.666595-.00002-333.333206-.000041-499.99985c166.666545-.00005,333.33311-.00005,499.999736-.0001.000091,166.666469.000091,333.332988.000183,499.999736C448.166656,501,395.333344,501,342,501M113.794296,174.309113c-8.678169,15.049102-17.356338,30.098205-26.468765,45.90036c2.758057-.498352,4.519661-.931916,6.307167-1.122727c40.703606-4.344833,77.390251,5.681381,110.013207,30.559937c20.197189,15.402542,33.721527,36.13472,46.0587,57.695663c20.123215,35.168183,38.911942,71.129334,59.893326,105.76883c21.281128,35.134338,53.839661,50.837951,94.683655,45.776153c67.123932-8.318634,104.028442-83.088714,70.496826-141.745819-26.214752-45.857605-52.753967-91.529709-79.141876-137.288376-19.668152-34.106079-39.326966-68.217522-58.986206-102.328735-22.216889-38.549122-64.792756-56.746857-107.827774-45.729574-27.300538,6.989149-46.905091,23.930608-60.741776,48.138166-17.888229,31.295754-35.94841,62.493217-54.286484,94.376122M57.029034,442.49234c19.740558,14.388031,41.996555,20.014984,65.995433,17.24997c52.943123-6.099884,89.633721-55.792878,80.845757-108.721466-8.746613-52.679505-62.331039-87.937195-114.359383-74.286591-36.983944,9.703522-60.823015,33.91922-68.512554,71.41275-7.808073,38.071503,4.835608,69.695526,36.030747,94.345337Z" fill="#fefefe"/><path d="M113.970261,173.987549c18.162109-31.561341,36.22229-62.758804,54.110519-94.054558c13.836685-24.207558,33.441238-41.149017,60.741776-48.138166c43.035018-11.017283,85.610885,7.180452,107.827774,45.729574c19.65924,34.111213,39.318054,68.222656,58.986206,102.328735c26.387909,45.758667,52.927124,91.430771,79.141876,137.288376c33.531616,58.657105-3.372894,133.427185-70.496826,141.745819-40.843994,5.061798-73.402527-10.641815-94.683655-45.776153-20.981384-34.639496-39.770111-70.600647-59.893326-105.76883-12.337173-21.560943-25.861511-42.293121-46.0587-57.695663-32.622956-24.878556-69.309601-34.90477-110.013207-30.559937-1.787506.190811-3.54911.624375-6.307167,1.122727c9.112427-15.802155,17.790596-30.851258,26.64473-46.221924Z" fill="#030303"/><path d="M56.760391,442.254578c-30.926496-24.412049-43.570177-56.036072-35.762104-94.107575c7.689539-37.49353,31.52861-61.709228,68.512554-71.41275c52.028344-13.650604,105.61277,21.607086,114.359383,74.286591c8.787964,52.928588-27.902634,102.621582-80.845757,108.721466-23.998878,2.765014-46.254875-2.861939-66.264076-17.487732Z" fill="#040404"/></g></svg>
