<?xml version="1.0" encoding="UTF-8"?>
<svg version="1.1" xmlns="http://www.w3.org/2000/svg" width="320" height="320">
<path d="M0 0 C10.2507765 8.65904102 16.38576764 18.7414099 23.08251953 30.20703125 C26.05749025 35.25743101 29.1086544 40.26142264 32.15713501 45.26763916 C33.2543471 47.06963943 34.35038168 48.8723506 35.44604492 50.67529297 C36.89495175 53.05948421 38.34425281 55.44343485 39.79394531 57.82714844 C41.73662244 61.02181796 43.677041 64.2178554 45.6171875 67.4140625 C51.20492639 76.61368875 56.82069289 85.79408632 62.5 94.9375 C67.08946479 102.32873686 71.60603972 109.75927838 76.06811523 117.22802734 C80.16154941 124.07554165 84.2958289 130.8977752 88.44021606 137.71450806 C89.55508711 139.55029368 90.66744544 141.38757837 91.77905273 143.2253418 C96.23715687 150.59086012 96.23715687 150.59086012 100.8203125 157.87890625 C109.72341037 171.85323387 113.53283213 186.91411285 110.47949219 203.38330078 C106.66341526 219.25558068 96.88845313 232.15420484 83.375 241.125 C67.82474318 250.38110525 49.28789843 252.80628929 31.55078125 248.99609375 C-1.30656172 239.83441126 -14.93481031 206.25596043 -30.70703125 179.08203125 C-34.16287485 173.12809441 -37.63353907 167.18312449 -41.125 161.25 C-41.59035156 160.45770996 -42.05570312 159.66541992 -42.53515625 158.84912109 C-57.28121398 133.91837946 -76.70340398 115.44726789 -105.1875 107.875 C-114.59099693 105.485161 -123.40214494 105.12164546 -133.0625 105.1875 C-134.31869141 105.19201172 -135.57488281 105.19652344 -136.86914062 105.20117188 C-139.95447663 105.21290319 -143.03971316 105.229319 -146.125 105.25 C-146.455 104.59 -146.785 103.93 -147.125 103.25 C-146.17553711 101.27661133 -146.17553711 101.27661133 -144.65234375 98.83203125 C-144.08990967 97.91977783 -143.52747559 97.00752441 -142.94799805 96.06762695 C-142.32578369 95.07593506 -141.70356934 94.08424316 -141.0625 93.0625 C-139.75500984 90.94803939 -138.44772354 88.83345272 -137.140625 86.71875 C-136.46837891 85.63722656 -135.79613281 84.55570312 -135.10351562 83.44140625 C-132.14332144 78.66652243 -129.2281123 73.86468497 -126.3125 69.0625 C-125.15505402 67.16139373 -123.99749927 65.26035368 -122.83984375 63.359375 C-119.78990442 58.3468158 -116.74794086 53.32946401 -113.70805359 48.31080627 C-110.48022464 42.9830423 -107.24197708 37.66166311 -104.00195312 32.34130859 C-102.3717525 29.656397 -100.75379363 26.96468955 -99.140625 24.26953125 C-88.81860172 7.16114112 -75.88602673 -6.23461281 -56.0625 -11.625 C-36.31305321 -15.57488936 -16.18589191 -12.37889154 0 0 Z " fill="#080808" transform="translate(201.125,28.75)"/>
<path d="M0 0 C3.57246448 2.78898606 6.82020814 5.77387237 10 9 C10.57363281 9.56332031 11.14726563 10.12664062 11.73828125 10.70703125 C20.67288975 20.19572399 24.84254061 33.49208475 25.4375 46.3125 C24.87236937 63.14356448 17.98172917 77.34710045 6 89 C-7.32153364 101.02974856 -23.54433035 104.86268789 -41.0234375 104.33984375 C-57.01830373 103.48046375 -71.21211858 96.41329634 -82.140625 84.70703125 C-92.43289471 72.89818538 -97.49995331 60.26485722 -96.875 44.625 C-95.56559044 29.78502497 -90.04892495 15.32548344 -79 5 C-72.59336708 -0.25475542 -65.70436244 -4.00385905 -58 -7 C-57.21882813 -7.32097656 -56.43765625 -7.64195312 -55.6328125 -7.97265625 C-37.31728153 -14.26313414 -15.85728193 -10.30623844 0 0 Z " fill="#090909" transform="translate(107,175)"/>
<path d="M0 0 C0.66 0.33 1.32 0.66 2 1 C-2.03523352 5.81123996 -6.04467233 10.13242719 -11 14 C-11 9.40845608 -8.09282279 7.18698368 -5 4 C-3.3719908 2.61973133 -1.71956118 1.26438322 0 0 Z " fill="#616161" transform="translate(33,176)"/>
<path d="M0 0 C0.66 0.33 1.32 0.66 2 1 C-5.11389522 9.6309795 -5.11389522 9.6309795 -10 12 C-8.52278578 8.54798361 -6.56205999 6.35038064 -3.875 3.75 C-3.15054688 3.04359375 -2.42609375 2.3371875 -1.6796875 1.609375 C-1.12539062 1.07828125 -0.57109375 0.5471875 0 0 Z " fill="#969696" transform="translate(121,29)"/>
</svg>
